<?xml version="1.0" encoding="UTF-8" standalone="no"?>
<!-- Created with Inkscape (http://www.inkscape.org/) -->

<svg
   width="500"
   height="500"
   viewBox="0 0 132.29166 132.29167"
   version="1.1"
   id="svg827"
   inkscape:version="1.1 (c68e22c387, 2021-05-23)"
   sodipodi:docname="drawing.svg"
   xmlns:inkscape="http://www.inkscape.org/namespaces/inkscape"
   xmlns:sodipodi="http://sodipodi.sourceforge.net/DTD/sodipodi-0.dtd"
   xmlns="http://www.w3.org/2000/svg"
   xmlns:svg="http://www.w3.org/2000/svg">
  <sodipodi:namedview
     id="namedview829"
     pagecolor="#ffffff"
     bordercolor="#666666"
     borderopacity="1.0"
     inkscape:pageshadow="2"
     inkscape:pageopacity="0.0"
     inkscape:pagecheckerboard="0"
     inkscape:document-units="mm"
     showgrid="false"
     units="px"
     inkscape:zoom="0.74118967"
     inkscape:cx="-70.832071"
     inkscape:cy="122.101"
     inkscape:window-width="1920"
     inkscape:window-height="1017"
     inkscape:window-x="1912"
     inkscape:window-y="-8"
     inkscape:window-maximized="1"
     inkscape:current-layer="layer1" />
  <defs
     id="defs824" />
  <g
     inkscape:label="Layer 1"
     inkscape:groupmode="layer"
     id="layer1"
     style="display:inline" />
  <g
     inkscape:groupmode="layer"
     id="layer2"
     inkscape:label="Layer 2"
     style="display:inline;opacity:1">
    <rect
       style="fill:#48eb96;fill-opacity:1;stroke:#48eb96;stroke-width:13.5948;stroke-linecap:round;stroke-linejoin:round;stroke-miterlimit:4;stroke-dasharray:none;stroke-opacity:1"
       id="rect9362"
       width="107.50289"
       height="103.04075"
       x="12.555957"
       y="15.054749" />
  </g>
  <g
     inkscape:groupmode="layer"
     id="layer3"
     inkscape:label="Layer 3"
     style="display:inline">
    <path
       style="fill:none;stroke:#000000;stroke-width:0.264583px;stroke-linecap:butt;stroke-linejoin:miter;stroke-opacity:1"
       d="m 45.335339,29.80709 c 0,0 -23.203125,-1.78486 -11.601561,19.09796"
       id="path935" />
    <path
       style="fill:none;stroke:#000000;stroke-width:0.264583px;stroke-linecap:butt;stroke-linejoin:miter;stroke-opacity:1"
       d="m 45.335339,29.80709 c 0,0 17.670071,3.7482 11.780048,19.99039"
       id="path937" />
    <path
       style="fill:none;stroke:#000000;stroke-width:0.264583px;stroke-linecap:butt;stroke-linejoin:miter;stroke-opacity:1"
       d="m 33.733778,48.90505 c 0,0 3.56971,4.28365 9.63822,4.99759"
       id="path941" />
    <path
       style="fill:none;stroke:#000000;stroke-width:0.264583px;stroke-linecap:butt;stroke-linejoin:miter;stroke-opacity:1"
       d="m 43.371998,53.90264 12.85096,7.85337 -9.459735,9.45974 c 0,0 -16.420671,2.67728 -16.777643,17.84855 0,0 3.034255,14.81431 20.704327,6.068506"
       id="path943" />
    <path
       style="fill:none;stroke:#000000;stroke-width:0.264583px;stroke-linecap:butt;stroke-linejoin:miter;stroke-opacity:1"
       d="m 50.689905,95.132806 c 0,0 13.207935,-9.102756 4.105169,-18.919466 l 8.745796,-8.74579 36.232566,18.02704"
       id="path945" />
    <path
       style="fill:none;stroke:#000000;stroke-width:0.264583px;stroke-linecap:butt;stroke-linejoin:miter;stroke-opacity:1"
       d="m 99.773436,85.49459 12.137014,0.71394 -40.6947,-24.45252 31.23497,-28.91466 c 0,0 -8.92427,-2.85577 -16.24218,4.99759"
       id="path947" />
    <path
       style="fill:none;stroke:#000000;stroke-width:0.264583px;stroke-linecap:butt;stroke-linejoin:miter;stroke-opacity:1"
       d="M 86.20854,37.83894 65.14724,55.86599"
       id="path949" />
    <path
       style="fill:none;stroke:#000000;stroke-width:0.264583px;stroke-linecap:butt;stroke-linejoin:miter;stroke-opacity:1"
       d="M 65.14724,55.86599 57.115385,49.79748"
       id="path951" />
    <ellipse
       style="fill:none;stroke:#000000;stroke-width:0.450653;stroke-linecap:round;stroke-linejoin:round;stroke-miterlimit:4;stroke-dasharray:none;stroke-opacity:1"
       id="path977"
       cx="60.81982"
       cy="11.460834"
       rx="8.2972136"
       ry="5.0952048"
       transform="matrix(0.84162973,0.540055,-0.56515362,0.82498569,0,0)" />
    <ellipse
       style="fill:none;stroke:#000000;stroke-width:0.450653;stroke-linecap:round;stroke-linejoin:round;stroke-miterlimit:4;stroke-dasharray:none;stroke-opacity:1"
       id="path977-3"
       cx="3.520206"
       cy="95.593681"
       rx="8.2972136"
       ry="5.0952048"
       transform="matrix(0.89218886,-0.45166253,0.42459173,0.90538493,0,0)" />
    <path
       style="fill:#000000;fill-opacity:1;stroke:#000000;stroke-width:0.269835;stroke-linecap:round;stroke-linejoin:round;stroke-miterlimit:4;stroke-dasharray:none;stroke-opacity:1"
       d="m 38.901042,97.620736 c -3.350352,-0.49327 -6.117587,-2.63467 -7.811701,-6.044999 l -0.836033,-1.682977 0.02814,-1.797492 c 0.03626,-2.316348 0.506566,-4.135215 1.66471,-6.438117 2.497749,-4.966636 7.38386,-8.451675 14.370852,-10.250074 0.601326,-0.154776 1.458751,-0.929368 5.435745,-4.910609 2.596989,-2.599764 4.685271,-4.756904 4.640625,-4.793647 -0.303691,-0.249914 -12.534585,-7.647349 -12.869156,-7.783464 -0.230976,-0.09397 -1.022342,-0.30665 -1.758595,-0.47262 -2.327918,-0.524783 -4.819285,-1.831264 -6.912361,-3.624869 -1.025994,-0.879197 -1.869723,-2.337609 -2.956976,-5.111231 -0.936839,-2.389907 -1.249068,-4.053811 -1.168601,-6.227598 0.06272,-1.694389 0.119915,-1.94182 0.737841,-3.192114 1.018948,-2.061699 2.723325,-3.404245 5.480987,-4.317404 1.959964,-0.649013 4.228711,-0.987944 6.613122,-0.987944 1.893102,0 2.262349,0.05537 3.680198,0.551839 8.504389,2.97788 12.446601,9.434666 10.397107,17.028991 -0.697103,2.583087 -1.074264,1.987991 3.383184,5.338077 2.167229,1.628825 4.027237,2.961502 4.133342,2.961502 0.200928,0 19.914841,-16.824867 21.947492,-18.731116 2.177375,-2.041969 4.584454,-3.413146 7.30124,-4.159102 1.09886,-0.301715 1.878792,-0.372869 4.121842,-0.376039 1.521584,-0.0021 2.957384,0.07694 3.190644,0.17575 0.397,0.168169 -0.56938,1.097666 -15.112402,14.535472 -8.545092,7.895699 -15.54026,14.395974 -15.544816,14.445057 -0.0046,0.04908 9.033833,5.507752 20.085317,12.130373 11.051491,6.622621 20.024391,12.064055 19.939801,12.092077 -0.0846,0.02802 -2.66184,-0.100319 -5.72722,-0.285199 l -5.573404,-0.336148 -18.157374,-9.041376 -18.157378,-9.041379 -4.446275,4.446276 -4.446275,4.446277 0.826611,1.014857 c 4.12247,5.061278 2.944958,11.043404 -3.266252,16.593572 -1.900719,1.698428 -5.652061,3.251698 -9.119995,3.776198 -1.845696,0.27915 -2.601605,0.29187 -4.113986,0.0692 z m 4.203227,-6.806401 c 3.245516,-0.688538 6.723213,-3.282664 7.968631,-5.944057 0.481729,-1.029439 0.540567,-1.322462 0.480171,-2.391344 -0.05656,-1.001041 -0.159208,-1.336638 -0.575916,-1.882968 -0.956525,-1.25407 -2.231015,-1.760675 -4.393608,-1.746441 -2.211734,0.01455 -4.696483,0.862835 -6.820198,2.328378 -1.283701,0.885865 -2.788521,2.609737 -3.378309,3.870087 -0.483542,1.033307 -0.540697,1.320218 -0.479332,2.406208 0.05942,1.051542 0.15005,1.333 0.615817,1.912393 1.288765,1.603168 3.528388,2.09573 6.582744,1.447744 z m 6.747946,-42.463042 c 0.373692,-0.09867 0.991465,-0.461296 1.372836,-0.805839 2.871496,-2.594223 0.458028,-7.690823 -4.917371,-10.384165 -1.566135,-0.784712 -2.99746,-1.151414 -4.531919,-1.161074 -1.738405,-0.01095 -2.718051,0.278196 -3.579532,1.056492 -2.868662,2.591665 -0.444484,7.71603 4.90804,10.374884 2.457741,1.220877 4.535027,1.503997 6.747946,0.919702 z"
       id="path8467" />
  </g>
</svg>
